# xmcd CD database file
#
# Track frame offsets:
#	150
#	14785
#	26892
#	43029
#	54551
#	69778
#	84197
#	100376
#	120372
#	135295
#	152774
#	168326
#	186905
#	203907
#	217169
#	234324
#	252964
#	268233
#	284437
#	306747
#	329193
#
# Disc length: 4611 seconds
#
# Revision: 4
# Processed by: cddbd v1.5.2PL0 Copyright (c) Steve Scherf et al.
# Submitted via: CDex 1.60beta1
#
DISCID=3d120115
DTITLE=PINK LADY - BEST
DYEAR=2005
DGENRE=Japanese Pop
TTITLE0=PEPPER KEIBU
TTITLE1=SOS
TTITLE2=KARMEN '77
TTITLE3=NAGISA NO SINDBAD
TTITLE4=WANTED
TTITLE5=UFO
TTITLE6=SOUTHPAW
TTITLE7=MONSTER
TTITLE8=TOUMEI NINGEN
TTITLE9=KAMEREON ARMY
TTITLE10=JIPANG
TTITLE11=PINK TYPHOON
TTITLE12=NAMINORI PYRATES
TTITLE13=KISS IN THE DARK
TTITLE14=MONDAY MONALISA CLUB
TTITLE15=DO YOUR BEST
TTITLE16=UTAKATA
TTITLE17=LAST PRETENDER
TTITLE18=OH!
TTITLE19=2NENME NO JINX
TTITLE20=POROROCA
EXTD=YEAR: 2005
EXTT0=
EXTT1=
EXTT2=
EXTT3=
EXTT4=
EXTT5=
EXTT6=
EXTT7=
EXTT8=
EXTT9=
EXTT10=
EXTT11=
EXTT12=
EXTT13=
EXTT14=
EXTT15=
EXTT16=
EXTT17=
EXTT18=
EXTT19=
EXTT20=
PLAYORDER=
